# xmcd CD database file
#
# Track frame offsets:
#	150
#	21900
#	48226
#
# Disc length: 817 seconds
#
# Revision: 1
# Processed by: cddbd v1.5.2PL0 Copyright (c) Steve Scherf et al.
# Submitted via: CDex 1.70beta2
#
DISCID=1c032f03
DTITLE=中村一義 - 君ノ声
DYEAR=2000
DGENRE=JPop
TTITLE0=君ノ声
TTITLE1=メロウ (タジマRemix)
TTITLE2=ショートホープ (両切りVersion)
EXTD=YEAR: 2000
EXTT0=
EXTT1=
EXTT2=
PLAYORDER=
